<?xml version="1.0" encoding="UTF-8" standalone="yes"?>
<svg height="1200" width="1200" version="1.2" baseProfile="tiny-ps" xmlns="http://www.w3.org/2000/svg">
  <title>bimi-svg-tiny-12-ps</title>
  <path transform="translate(0,0)" fill="#1E0470" d="M0 0 C396 0 792 0 1200 0 C1200 396 1200 792 1200 1200 C804 1200 408 1200 0 1200 C0 804 0 408 0 0 Z"/>
  <path transform="translate(318,685)" fill="#F4F9F8" d="M0 0 C8.0396831 5.97589985 14.62921812 13.03050567 17 23 C17.35975075 27.60756109 17.37954209 32.19708803 17.34955978 36.81496811 C17.33565594 39.16477303 17.34235859 41.51374844 17.35440063 43.86355591 C17.38510764 50.53995389 17.380708 57.21615395 17.36035156 63.89257812 C16.92732549 89.42231459 16.92732549 89.42231459 23 114 C23.49045712 115.31382922 23.97791742 116.62878099 24.46240234 117.94482422 C25.27407551 120.10713138 26.11137987 122.26015195 26.984375 124.3984375 C27.84369805 126.59962654 28.49772085 128.69606738 29 131 C29.66 131 30.32 131 31 131 C32.04198001 132.71334323 33.0062566 134.4740346 33.9375 136.25 C38.04665178 143.48790427 43.13464117 149.13464117 49 155 C49.81597656 155.81597656 50.63195312 156.63195312 51.47265625 157.47265625 C70.85597549 175.84741254 96.80677533 184.16083695 123.07821655 184.14044189 C124.28108327 184.14341302 125.48394998 184.14638414 126.7232672 184.1494453 C130.0453231 184.15659477 133.36732725 184.15930221 136.68938708 184.16004276 C140.27926884 184.1619017 143.86913957 184.16945335 147.45901489 184.17617798 C155.30247328 184.18972941 163.14592653 184.19578141 170.98939466 184.20018864 C175.89426372 184.20295721 180.79913083 184.20719575 185.70399857 184.21169281 C199.30441603 184.22388273 212.90483194 184.23418167 226.50525475 184.2375679 C227.80966051 184.23789725 227.80966051 184.23789725 229.14041791 184.23823325 C230.44782022 184.23856067 230.44782022 184.23856067 231.78163469 184.2388947 C233.54761974 184.23933816 235.31360479 184.23978472 237.07958984 184.24023438 C237.95556622 184.2404558 238.83154259 184.24067723 239.7340637 184.24090537 C253.90897779 184.24484834 268.08384031 184.26228827 282.25873451 184.2855939 C296.83849673 184.30937008 311.41823314 184.32177264 325.99801505 184.32293582 C334.17316792 184.32384922 342.34825365 184.32951626 350.52338791 184.34775543 C357.48872958 184.36324145 364.45398335 184.36822731 371.41933899 184.36001733 C374.96590745 184.35614027 378.51229938 184.35689393 382.05884552 184.37107468 C414.70717602 184.49381309 443.09794965 179.70121448 468 157 C468.71542969 156.35417969 469.43085937 155.70835937 470.16796875 155.04296875 C486.80311442 139.24440681 496.03821172 118.24161843 500 96 C500.66 96 501.32 96 502 96 C501.99333817 95.11796402 501.98667633 94.23592804 501.97981262 93.3271637 C501.91952434 84.98594286 501.87393586 76.64479595 501.84456348 68.30340672 C501.82895484 64.01573398 501.80780512 59.72824236 501.77368164 55.44067383 C501.74091583 51.29743118 501.72311093 47.15436197 501.71536827 43.01099968 C501.7098555 41.43586436 501.69909087 39.86073777 501.68280983 38.28567696 C501.55334069 25.23305286 502.91604766 15.48952545 512.125 5.4375 C519.32974231 -1.59570083 527.95909404 -4.32955911 537.8046875 -4.2109375 C547.95218287 -3.54105394 556.53758331 0.94328713 563.375 8.4375 C568.20421918 14.07158905 569.44754065 20.01661385 569.37231445 27.25170898 C569.37596512 28.04633041 569.37961578 28.84095184 569.38337708 29.65965271 C569.39144344 32.27202126 569.37789423 34.88376123 569.36328125 37.49609375 C569.36276171 39.33105977 569.36328303 41.16602635 569.36479187 43.00099182 C569.36470229 46.8466931 569.35431052 50.69218418 569.33618164 54.5378418 C569.31363953 59.42260658 569.31292586 64.30706074 569.31969929 69.19186306 C569.32307428 72.98501757 569.31634119 76.77810375 569.30657005 80.57124519 C569.30276734 82.3694326 569.30154893 84.16762769 569.3031559 85.96581841 C569.30528653 100.23925093 569.14536399 114.50487548 564 128 C563.5342222 129.51047913 563.08139692 131.02500423 562.640625 132.54296875 C559.64991619 142.61394191 556.23406282 151.84700176 551 161 C550.60151855 161.6997998 550.20303711 162.39959961 549.79248047 163.12060547 C525.45239496 205.3742605 488.16340133 235.05553407 441 248 C421.85389134 252.87584765 403.1843427 253.30444021 383.54006934 253.29076743 C379.83295725 253.29035486 376.12587513 253.30143995 372.41877747 253.31088257 C365.17515537 253.32739978 357.93156584 253.3329879 350.68792647 253.33410732 C344.79081717 253.33506232 338.89371849 253.33919496 332.99661255 253.34550858 C316.22409222 253.36309637 299.45159735 253.37235142 282.67906773 253.37084763 C281.7774119 253.37076772 280.87575608 253.3706878 279.94677734 253.37060547 C278.59261445 253.37048283 278.59261445 253.37048283 277.21109474 253.37035771 C262.59776502 253.36954571 247.98453858 253.38866808 233.37123871 253.4168822 C218.31432375 253.44572004 203.25745898 253.4594165 188.20051575 253.45769465 C179.76817453 253.45703445 171.33594159 253.46236254 162.90362549 253.48405075 C155.72160105 253.50240688 148.53973393 253.50649319 141.357696 253.4930319 C137.70497077 253.48657378 134.05254606 253.48611941 130.39985085 253.5037384 C109.12109934 253.59995367 87.89974747 252.59752599 67.6875 245.3125 C66.21724365 244.8009436 66.21724365 244.8009436 64.71728516 244.27905273 C39.02320525 235.09545094 17.66948975 220.70929277 -2 202 C-2.96679688 201.11248047 -2.96679688 201.11248047 -3.953125 200.20703125 C-11.85782132 192.72712001 -18.15110472 183.5250422 -24.0625 174.4375 C-24.63556885 173.56242798 -24.63556885 173.56242798 -25.22021484 172.66967773 C-27.02119526 169.8393887 -28.46927064 167.33951244 -29 164 C-29.66 164 -30.32 164 -31 164 C-34.39390432 157.46256136 -37.38047295 150.88334596 -40 144 C-40.26683594 143.31035156 -40.53367187 142.62070312 -40.80859375 141.91015625 C-43.81347927 134.04763195 -46.32955925 126.25465976 -48 118 C-48.37318359 116.24236328 -48.37318359 116.24236328 -48.75390625 114.44921875 C-49.02074219 113.16660156 -49.28757812 111.88398437 -49.5625 110.5625 C-49.81128906 109.36753906 -50.06007813 108.17257812 -50.31640625 106.94140625 C-52.11687878 97.17559754 -52.17700323 87.36334138 -52.203125 77.46484375 C-52.20595238 76.73503359 -52.20877975 76.00522343 -52.21169281 75.25329781 C-52.22657837 71.39794695 -52.2358773 67.54263255 -52.24023438 63.68725586 C-52.24573252 59.73114015 -52.26981913 55.77536621 -52.29820633 51.81935787 C-52.31691405 48.75052428 -52.32204241 45.6817722 -52.32357025 42.61288643 C-52.32657421 41.15498531 -52.33452531 39.69708483 -52.34775543 38.23924065 C-52.4517704 25.90774465 -50.98412558 15.34382303 -42.1796875 6.0859375 C-30.44139964 -4.73170033 -14.44649613 -7.90866576 0 0 Z"/>
  <path transform="translate(595,236)" fill="#F4FAF8" d="M0 0 C8.1568821 6.13245998 13.16277828 12.13603657 16 22 C16.24839699 25.14328992 16.24839699 25.14328992 16.24609566 28.57918358 C16.25007775 29.89391981 16.25405985 31.20865605 16.25816262 32.56323278 C16.25245715 34.01549371 16.24656598 35.46775392 16.24050903 36.92001343 C16.24138137 38.46786781 16.24313287 40.01572191 16.24568737 41.56357443 C16.25015935 45.81424479 16.24215924 50.06481437 16.23213124 54.31547189 C16.22349692 58.9002763 16.22641689 63.485075 16.22793579 68.06988525 C16.22898465 76.01248904 16.22270792 83.95505997 16.21146011 91.89765549 C16.19520825 103.38132099 16.18999743 114.8649706 16.18748413 126.34864636 C16.18310654 144.9799985 16.16979568 163.61133314 16.15087891 182.24267578 C16.13252178 200.34163322 16.11836445 218.44058591 16.10986328 236.53955078 C16.10933783 237.65511079 16.10881239 238.77067079 16.10827102 239.92003565 C16.10566095 245.51645446 16.10313353 251.1128733 16.10064721 256.70929217 C16.07991271 303.13954024 16.04468541 349.56976922 16 396 C17.2561105 394.91157595 18.51066625 393.8213575 19.76459122 392.7304163 C20.46339346 392.12349982 21.16219571 391.51658335 21.88217378 390.89127547 C25.29587923 387.84274519 28.49080535 384.59041969 31.69433594 381.32397461 C33.19154203 379.80711727 34.68875507 378.29026679 36.18597412 376.77342224 C37.35812092 375.5829318 37.35812092 375.5829318 38.55394745 374.36839104 C42.73743548 370.12359086 46.93661477 365.89433891 51.1328125 361.66210938 C56.4512961 356.29577255 61.76515177 350.92506647 67.06347656 345.53881836 C71.36486534 341.16687226 75.68102234 336.80998991 80.00714874 332.46252632 C81.6439117 330.81224738 83.27527142 329.15658986 84.90087128 327.49531364 C105.84044856 306.10881733 105.84044856 306.10881733 119.5 305.6875 C130.09229934 305.82646603 138.47501803 310.64484329 145.90625 317.84765625 C153.27957483 325.70524606 155.71687198 332.75748831 155.390625 343.55859375 C154.20275974 354.02368671 148.39681333 361.90977878 141.11947632 369.15467834 C140.53508274 369.7443086 139.95068916 370.33393886 139.34858668 370.94143671 C137.39906176 372.90590235 135.44251375 374.86321349 133.48583984 376.82055664 C132.08238165 378.23164027 130.67932586 379.64312422 129.27664185 381.05497742 C125.47139499 384.88213759 121.65962466 388.70273423 117.8459506 392.5214951 C115.46151044 394.90958243 113.07837288 397.29896193 110.69566727 399.68877983 C102.37720939 408.03172074 94.05305603 416.36893509 85.72412109 424.70141602 C77.96995998 432.45921195 70.22902787 440.23003898 62.494017 448.00692469 C55.84454819 454.69112179 49.18545599 461.36563 42.51894915 468.03283399 C38.54107181 472.01150323 34.56724921 475.99402549 30.60325241 479.9865284 C26.87306924 483.74293529 23.13102708 487.48711481 19.37971115 491.22241402 C18.00885509 492.5914591 16.6422214 493.96474797 15.28028107 495.34266281 C5.48190447 505.2488761 -3.03061053 513.00507938 -17.625 513.3125 C-35.30437128 513.12910403 -45.09031061 500.06649754 -56.75634766 488.45239258 C-58.13677353 487.08152029 -59.51736792 485.71081768 -60.89811707 484.340271 C-65.40732041 479.86226012 -69.91114605 475.37886281 -74.4140625 470.89453125 C-75.56659366 469.74694607 -75.56659366 469.74694607 -76.74240828 468.57617736 C-83.99741947 461.35192252 -91.25039503 454.12562976 -98.49852943 446.89447498 C-107.74188928 437.6730312 -116.99516411 428.46179265 -126.26225054 419.26419145 C-132.79442361 412.77932965 -139.31499878 406.28294813 -145.82718503 399.77801627 C-149.70987972 395.90026378 -153.59741317 392.02767854 -157.49751663 388.16742897 C-161.16662188 384.53533232 -164.82107575 380.88909863 -168.46509743 377.23184204 C-169.79897705 375.89801611 -171.13793799 374.56924781 -172.48250008 373.24619102 C-189.27415447 356.70870612 -189.27415447 356.70870612 -190.796875 344.75 C-190.6564532 333.51625626 -188.031322 325.11422733 -180.375 316.625 C-173.0574128 309.93583154 -164.00749348 305.59776955 -154 306 C-142.01641539 306.92036935 -133.57037221 313.81324484 -125.42919922 322.11669922 C-124.63769974 322.90761459 -123.84620026 323.69852997 -123.03071594 324.51341248 C-120.44576376 327.10112664 -117.87522984 329.70266553 -115.3046875 332.3046875 C-113.5038175 334.11302654 -111.70205584 335.920478 -109.89944458 337.7270813 C-105.66010525 341.98007486 -101.42978808 346.24184017 -97.20381939 350.50810444 C-92.38702035 355.36981812 -87.55867831 360.2199995 -82.72939658 365.069309 C-72.80682197 375.03354549 -62.89862271 385.01197296 -53 395 C-52.99853479 393.83133264 -52.99853479 393.83133264 -52.99703997 392.63905585 C-52.93876529 346.46040657 -52.86496648 300.28180447 -52.77101372 254.10321329 C-52.75974558 248.55822966 -52.74860713 243.01324577 -52.73754883 237.46826172 C-52.73534514 236.36435736 -52.73314146 235.260453 -52.730871 234.12309699 C-52.69550066 216.24991432 -52.67063503 198.37673169 -52.64965298 180.503527 C-52.62788885 162.16334944 -52.59483257 143.82321729 -52.55129844 125.48307836 C-52.52479233 114.1666604 -52.50708928 102.85029902 -52.50065396 91.53385155 C-52.49539692 83.77326159 -52.47916923 76.01274283 -52.45433434 68.25219102 C-52.44033029 63.77507836 -52.43114447 59.29809311 -52.43499184 54.82095718 C-52.43841024 50.71855396 -52.42799029 46.61642255 -52.40676448 42.51407497 C-52.40151037 41.03343165 -52.40124716 39.55276 -52.40660437 38.07211705 C-52.45090352 24.43481053 -50.68388965 15.0804775 -41.18359375 5.08984375 C-30.23920583 -5.32390718 -13.21938961 -8.22637556 0 0 Z"/>
</svg>